<?xml version="1.0" encoding="UTF-8"?>
<svg id="_图层_1" data-name="图层 1" xmlns="http://www.w3.org/2000/svg" viewBox="0 0 297 205">
  <defs>
    <style>
      .cls-1 {
        fill: #006934;
      }

      .cls-2 {
        fill: #e4cdba;
      }

      .cls-3 {
        fill: #1d8d3b;
      }

      .cls-4, .cls-5 {
        fill: #604c3f;
      }

      .cls-5 {
        opacity: .2;
      }

      .cls-6 {
        opacity: .45;
      }
    </style>
  </defs>
  <g>
    <path class="cls-1" d="M68.5,128.18h5.4l11.45,18.67v-18.67h4.99v26.45h-5.37l-11.49-18.63v18.63h-4.99v-26.45Z"/>
    <path class="cls-1" d="M95.4,128.18h10.24c4.84,0,8.28,2.42,8.28,6.8,0,2.49-1.59,4.38-3.21,5.21,2.49,.94,4.53,3.06,4.53,6.61,0,4.91-3.67,7.82-9.22,7.82h-10.62v-26.45Zm9.9,10.35c2.64,0,3.97-1.13,3.97-3.17s-1.32-3.17-4.04-3.17h-4.91v6.35h4.99Zm.19,11.75c3.36,0,4.95-1.28,4.95-3.74s-1.59-3.78-4.95-3.78h-5.18v7.52h5.18Z"/>
    <path class="cls-1" d="M140.86,128.18v26.45h-4.99v-11.37h-11.79v11.37h-4.99v-26.45h4.99v10.73h11.79v-10.73h4.99Z"/>
    <path class="cls-1" d="M163.15,154.62h-4.65v-2.95c-1.06,2.08-3.21,3.25-5.93,3.25-4.27,0-7.07-3.1-7.07-7.56v-11.79h4.61v10.81c0,2.61,1.62,4.42,3.97,4.42,2.61,0,4.42-2.04,4.42-4.84v-10.39h4.65v19.04Z"/>
    <path class="cls-1" d="M172.18,152.24v2.38h-4.61v-27.2h4.61v10.47c1.1-1.55,3.14-2.61,5.59-2.61,5.63,0,8.99,4,8.99,9.82s-3.36,9.82-9.07,9.82c-2.31,0-4.42-1.02-5.52-2.68Zm9.98-7.14c0-3.51-2.04-5.82-5.14-5.82s-5.14,2.31-5.14,5.82,2.04,5.82,5.14,5.82,5.14-2.31,5.14-5.82Z"/>
  </g>
  <polygon class="cls-2" points="228.53 154.72 192.14 154.72 192.14 149.3 223.12 149.3 223.12 55.49 73.88 55.49 73.88 121.88 68.47 121.88 68.47 50.07 228.53 50.07 228.53 154.72"/>
  <rect class="cls-3" x="68.47" y="82.34" width="5.42" height="39.53"/>
  <g class="cls-6">
    <path class="cls-4" d="M196.42,65.19h1.68v7.38h4.12v1.45h-5.8v-8.83Z"/>
    <path class="cls-4" d="M208.95,71.89c-.24,1.35-1.42,2.22-2.99,2.22-2.08,0-3.24-1.64-3.24-3.3s1.04-3.25,3.11-3.25,3.09,1.55,3.09,3.06c0,.21-.01,.4-.02,.53h-4.69c.11,1.02,.77,1.68,1.75,1.68,.79,0,1.31-.33,1.47-.93h1.51Zm-4.7-1.77h3.13c-.06-.81-.62-1.41-1.54-1.41-.87,0-1.42,.46-1.59,1.41Z"/>
    <path class="cls-4" d="M212.21,65.74v1.92h1.76v1.3h-1.76v2.77c0,.64,.34,.97,.92,.97h.84v1.31h-1.02c-1.39,0-2.29-.81-2.29-2.22v-2.84h-1.25v-1.3h1.25v-1.92h1.55Z"/>
    <path class="cls-4" d="M153.75,85.04l-1.23,1.34v2.75h-1.68v-8.83h1.68v3.85l3.54-3.85h2.08l-3.24,3.51,3.57,5.32h-2.07l-2.65-4.09Z"/>
    <path class="cls-4" d="M158.8,82.77h1.55v.98c.35-.69,1.07-1.08,1.98-1.08,1.44,0,2.37,1.03,2.37,2.52v3.93h-1.55v-3.61c0-.87-.53-1.48-1.32-1.48-.87,0-1.48,.68-1.48,1.61v3.47h-1.55v-6.35Z"/>
    <path class="cls-4" d="M165.74,85.95c0-1.89,1.39-3.28,3.33-3.28s3.31,1.39,3.31,3.28-1.39,3.28-3.31,3.28-3.33-1.39-3.33-3.28Zm5.08,0c0-1.15-.71-1.94-1.75-1.94s-1.77,.79-1.77,1.94,.71,1.94,1.77,1.94,1.75-.79,1.75-1.94Z"/>
    <path class="cls-4" d="M172.65,82.77h1.55l1.16,4.25,1.25-4.25h1.42l1.25,4.25,1.17-4.25h1.54l-2.02,6.35h-1.37l-1.27-4.28-1.29,4.28h-1.36l-2.03-6.35Z"/>
    <path class="cls-4" d="M182.93,80.05h1.54v9.08h-1.54v-9.08Z"/>
    <path class="cls-4" d="M191.83,87.01c-.24,1.35-1.42,2.22-2.99,2.22-2.08,0-3.24-1.64-3.24-3.3s1.04-3.25,3.11-3.25,3.09,1.55,3.09,3.06c0,.21-.01,.4-.02,.53h-4.69c.11,1.02,.77,1.68,1.75,1.68,.79,0,1.31-.33,1.47-.93h1.51Zm-4.7-1.77h3.13c-.06-.81-.62-1.41-1.54-1.41-.87,0-1.42,.46-1.59,1.41Z"/>
    <path class="cls-4" d="M192.53,85.95c0-1.94,1.12-3.28,3-3.28,.83,0,1.5,.35,1.87,.87v-3.49h1.54v9.08h-1.54v-.79c-.37,.55-1.07,.9-1.84,.9-1.9,0-3.03-1.34-3.03-3.28Zm4.97,0c0-1.17-.68-1.94-1.71-1.94s-1.71,.77-1.71,1.94,.68,1.94,1.71,1.94,1.71-.77,1.71-1.94Z"/>
    <path class="cls-4" d="M206.55,82.77v6.71c0,1.32-.96,2.22-2.38,2.22h-3.14v-1.23h2.93c.62,0,1.06-.47,1.06-1.13v-.91c-.31,.49-1.05,.81-1.84,.81-1.92,0-3.03-1.34-3.03-3.28s1.11-3.28,3-3.28c.79,0,1.49,.33,1.85,.82v-.72h1.55Zm-1.44,3.18c0-1.17-.68-1.94-1.73-1.94s-1.7,.77-1.7,1.94,.67,1.94,1.7,1.94,1.73-.77,1.73-1.94Z"/>
    <path class="cls-4" d="M213.91,87.01c-.24,1.35-1.42,2.22-2.99,2.22-2.08,0-3.24-1.64-3.24-3.3s1.03-3.25,3.11-3.25,3.09,1.55,3.09,3.06c0,.21-.01,.4-.02,.53h-4.69c.11,1.02,.77,1.68,1.75,1.68,.79,0,1.31-.33,1.47-.93h1.51Zm-4.7-1.77h3.13c-.06-.81-.62-1.41-1.54-1.41-.87,0-1.42,.46-1.59,1.41Z"/>
    <path class="cls-4" d="M199.2,104.24h-1.65l-.21-2.17c-.06-.67-.53-1.15-1.19-1.15h-1.9v3.32h-1.68v-8.83h3.62c1.84,0,2.93,1.12,2.93,2.72,0,.91-.45,1.53-1.18,1.9,.61,.38,.99,1.03,1.06,1.84l.21,2.36Zm-4.95-4.75h1.87c.98,0,1.39-.64,1.39-1.35s-.4-1.32-1.39-1.32h-1.87v2.67Z"/>
    <path class="cls-4" d="M206.29,104.24h-1.55v-.98c-.35,.69-1.07,1.08-1.98,1.08-1.42,0-2.36-1.03-2.36-2.52v-3.93h1.54v3.61c0,.87,.54,1.47,1.32,1.47,.87,0,1.48-.68,1.48-1.61v-3.47h1.55v6.35Z"/>
    <path class="cls-4" d="M207.67,97.89h1.55v.98c.35-.69,1.07-1.08,1.98-1.08,1.44,0,2.37,1.03,2.37,2.52v3.93h-1.55v-3.61c0-.87-.53-1.48-1.32-1.48-.87,0-1.48,.68-1.48,1.61v3.47h-1.55v-6.35Z"/>
  </g>
  <polygon class="cls-4" points="91.24 70.34 82.19 65.12 82.19 75.56 91.24 70.34"/>
  <rect class="cls-5" x="99.08" y="67.63" width="88.93" height="5.42"/>
  <rect class="cls-5" x="82.19" y="82.34" width="61.35" height="5.42"/>
  <rect class="cls-5" x="82.19" y="97.89" width="99.43" height="5.42"/>
</svg>