<?xml version="1.0" encoding="UTF-8"?>
<svg id="_图层_1" data-name="图层 1" xmlns="http://www.w3.org/2000/svg" viewBox="0 0 297 205">
  <defs>
    <style>
      .cls-1 {
        opacity: .12;
      }

      .cls-1, .cls-2 {
        fill: #040000;
      }

      .cls-3 {
        fill: #1d8d3b;
      }

      .cls-4 {
        opacity: .25;
      }
    </style>
  </defs>
  <g>
    <path class="cls-2" d="M40.16,137.27h7.32l15.5,25.28v-25.28h6.76v35.82h-7.27l-15.55-25.23v25.23h-6.76v-35.82Z"/>
    <path class="cls-2" d="M76.59,137.27h13.87c6.55,0,11.21,3.27,11.21,9.21,0,3.38-2.15,5.94-4.35,7.06,3.37,1.28,6.14,4.15,6.14,8.95,0,6.65-4.96,10.59-12.49,10.59h-14.38v-35.82Zm13.41,14.02c3.58,0,5.37-1.54,5.37-4.3s-1.79-4.3-5.47-4.3h-6.65v8.6h6.75Zm.26,15.91c4.55,0,6.7-1.74,6.7-5.07s-2.15-5.12-6.7-5.12h-7.01v10.18h7.01Z"/>
    <path class="cls-2" d="M138.15,137.27v35.82h-6.75v-15.4h-15.96v15.4h-6.76v-35.82h6.76v14.53h15.96v-14.53h6.75Z"/>
    <path class="cls-2" d="M168.34,173.09h-6.29v-3.99c-1.43,2.81-4.35,4.4-8.04,4.4-5.78,0-9.57-4.2-9.57-10.23v-15.96h6.24v14.63c0,3.53,2.2,5.99,5.37,5.99,3.53,0,5.99-2.76,5.99-6.55v-14.07h6.29v25.79Z"/>
    <path class="cls-2" d="M180.57,169.86v3.22h-6.24v-36.84h6.24v14.17c1.49-2.1,4.25-3.53,7.57-3.53,7.63,0,12.18,5.42,12.18,13.3s-4.55,13.3-12.28,13.3c-3.12,0-5.99-1.38-7.47-3.63Zm13.51-9.67c0-4.76-2.76-7.88-6.96-7.88s-6.96,3.12-6.96,7.88,2.77,7.88,6.96,7.88,6.96-3.12,6.96-7.88Z"/>
  </g>
  <polygon class="cls-2" points="256.88 173.21 207.6 173.21 207.6 165.88 249.54 165.88 249.54 38.84 47.46 38.84 47.46 128.74 40.12 128.74 40.12 31.5 256.88 31.5 256.88 173.21"/>
  <rect class="cls-3" x="40.13" y="75.2" width="7.33" height="53.53"/>
  <g class="cls-4">
    <path class="cls-2" d="M213.39,51.97h2.27v9.99h5.58v1.97h-7.86v-11.95Z"/>
    <path class="cls-2" d="M230.35,61.05c-.32,1.83-1.93,3-4.04,3-2.82,0-4.39-2.22-4.39-4.47s1.4-4.4,4.22-4.4,4.18,2.1,4.18,4.15c0,.29-.02,.55-.03,.72h-6.35c.15,1.39,1.04,2.27,2.38,2.27,1.07,0,1.78-.44,2-1.26h2.05Zm-6.37-2.39h4.23c-.09-1.09-.84-1.91-2.09-1.91-1.18,0-1.93,.62-2.15,1.91Z"/>
    <path class="cls-2" d="M234.77,52.72v2.6h2.39v1.76h-2.39v3.75c0,.87,.46,1.32,1.25,1.32h1.14v1.78h-1.38c-1.88,0-3.1-1.09-3.1-3v-3.84h-1.69v-1.76h1.69v-2.6h2.1Z"/>
    <path class="cls-2" d="M155.61,78.86l-1.67,1.81v3.72h-2.27v-11.95h2.27v5.21l4.8-5.21h2.82l-4.39,4.75,4.83,7.21h-2.8l-3.59-5.53Z"/>
    <path class="cls-2" d="M162.44,75.79h2.1v1.33c.48-.94,1.45-1.47,2.68-1.47,1.95,0,3.21,1.4,3.21,3.41v5.33h-2.1v-4.88c0-1.18-.72-2-1.79-2-1.18,0-2,.92-2,2.19v4.7h-2.1v-8.6Z"/>
    <path class="cls-2" d="M171.84,80.09c0-2.56,1.88-4.44,4.51-4.44s4.49,1.88,4.49,4.44-1.88,4.44-4.49,4.44-4.51-1.88-4.51-4.44Zm6.88,0c0-1.55-.96-2.63-2.37-2.63s-2.39,1.08-2.39,2.63,.96,2.63,2.39,2.63,2.37-1.08,2.37-2.63Z"/>
    <path class="cls-2" d="M181.21,75.79h2.1l1.57,5.75,1.69-5.75h1.93l1.69,5.75,1.59-5.75h2.08l-2.73,8.6h-1.86l-1.73-5.79-1.74,5.79h-1.84l-2.75-8.6Z"/>
    <path class="cls-2" d="M195.13,72.1h2.08v12.29h-2.08v-12.29Z"/>
    <path class="cls-2" d="M207.18,81.52c-.32,1.83-1.93,3-4.04,3-2.82,0-4.39-2.22-4.39-4.47s1.4-4.4,4.22-4.4,4.18,2.1,4.18,4.15c0,.29-.02,.55-.03,.72h-6.35c.15,1.39,1.04,2.27,2.38,2.27,1.07,0,1.78-.44,2-1.26h2.05Zm-6.37-2.39h4.23c-.09-1.09-.84-1.91-2.09-1.91-1.18,0-1.93,.62-2.15,1.91Z"/>
    <path class="cls-2" d="M208.12,80.09c0-2.63,1.52-4.44,4.06-4.44,1.13,0,2.03,.48,2.53,1.18v-4.73h2.08v12.29h-2.08v-1.08c-.5,.75-1.45,1.21-2.5,1.21-2.58,0-4.1-1.81-4.1-4.44Zm6.73,0c0-1.59-.92-2.63-2.32-2.63s-2.32,1.04-2.32,2.63,.92,2.63,2.32,2.63,2.32-1.04,2.32-2.63Z"/>
    <path class="cls-2" d="M227.11,75.79v9.08c0,1.79-1.3,3-3.23,3h-4.25v-1.67h3.96c.84,0,1.44-.63,1.44-1.54v-1.23c-.43,.67-1.42,1.09-2.5,1.09-2.6,0-4.1-1.81-4.1-4.44s1.5-4.44,4.06-4.44c1.08,0,2.02,.44,2.51,1.11v-.97h2.1Zm-1.95,4.3c0-1.59-.92-2.63-2.34-2.63s-2.3,1.04-2.3,2.63,.9,2.63,2.3,2.63,2.34-1.04,2.34-2.63Z"/>
    <path class="cls-2" d="M237.07,81.52c-.32,1.83-1.93,3-4.04,3-2.82,0-4.39-2.22-4.39-4.47s1.4-4.4,4.21-4.4,4.18,2.1,4.18,4.15c0,.29-.02,.55-.03,.72h-6.35c.15,1.39,1.04,2.27,2.38,2.27,1.08,0,1.78-.44,2-1.26h2.05Zm-6.37-2.39h4.23c-.09-1.09-.84-1.91-2.09-1.91-1.18,0-1.93,.62-2.15,1.91Z"/>
    <path class="cls-2" d="M217.15,104.86h-2.24l-.29-2.94c-.09-.9-.72-1.55-1.61-1.55h-2.58v4.49h-2.27v-11.95h4.9c2.49,0,3.96,1.52,3.96,3.69,0,1.23-.61,2.07-1.6,2.58,.82,.51,1.35,1.4,1.43,2.49l.29,3.19Zm-6.71-6.44h2.53c1.33,0,1.88-.87,1.88-1.83s-.55-1.79-1.88-1.79h-2.53v3.62Z"/>
    <path class="cls-2" d="M226.75,104.86h-2.1v-1.33c-.48,.94-1.45,1.47-2.68,1.47-1.93,0-3.19-1.4-3.19-3.41v-5.33h2.08v4.88c0,1.18,.74,2,1.79,2,1.18,0,2-.92,2-2.19v-4.69h2.1v8.6Z"/>
    <path class="cls-2" d="M228.62,96.25h2.1v1.33c.48-.94,1.45-1.47,2.68-1.47,1.95,0,3.21,1.4,3.21,3.41v5.33h-2.1v-4.88c0-1.18-.72-2-1.79-2-1.18,0-2,.92-2,2.19v4.7h-2.1v-8.6Z"/>
  </g>
  <polygon class="cls-2" points="70.96 58.95 58.71 51.88 58.71 66.02 70.96 58.95"/>
  <rect class="cls-1" x="81.58" y="55.28" width="120.43" height="7.34"/>
  <rect class="cls-1" x="58.71" y="75.2" width="83.08" height="7.34"/>
  <rect class="cls-1" x="58.71" y="96.26" width="134.65" height="7.34"/>
</svg>