<?xml version="1.0" encoding="UTF-8"?>
<svg id="_图层_2" data-name="图层 2" xmlns="http://www.w3.org/2000/svg" viewBox="0 0 256.44 167.99">
  <defs>
    <style>
      .cls-1 {
        opacity: .12;
      }

      .cls-1, .cls-2 {
        fill: #010100;
      }

      .cls-3 {
        fill: #1f8d3b;
      }

      .cls-4 {
        opacity: .25;
      }
    </style>
  </defs>
  <g id="_图层_1-2" data-name="图层 1">
    <g>
      <path class="cls-2" d="M.05,125.13H8.71l18.34,29.9v-29.9h7.99v42.37h-8.6l-18.4-29.84v29.84H.05v-42.37Z"/>
      <path class="cls-2" d="M43.15,125.13h16.4c7.75,0,13.26,3.87,13.26,10.9,0,4-2.54,7.02-5.14,8.35,3.99,1.51,7.26,4.9,7.26,10.59,0,7.87-5.87,12.53-14.77,12.53h-17.01v-42.37Zm15.86,16.59c4.24,0,6.36-1.82,6.36-5.09s-2.12-5.08-6.48-5.08h-7.87v10.17h7.99Zm.3,18.83c5.39,0,7.93-2.06,7.93-5.99s-2.54-6.05-7.93-6.05h-8.29v12.05h8.29Z"/>
      <path class="cls-2" d="M115.98,125.13v42.37h-7.99v-18.22h-18.89v18.22h-7.99v-42.37h7.99v17.19h18.89v-17.19h7.99Z"/>
      <path class="cls-2" d="M151.7,167.5h-7.45v-4.72c-1.69,3.33-5.15,5.21-9.51,5.21-6.84,0-11.32-4.96-11.32-12.11v-18.89h7.39v17.31c0,4.18,2.6,7.08,6.36,7.08,4.18,0,7.08-3.27,7.08-7.75v-16.65h7.45v30.51Z"/>
      <path class="cls-2" d="M166.16,163.69v3.81h-7.39v-43.58h7.39v16.77c1.76-2.48,5.03-4.18,8.96-4.18,9.02,0,14.41,6.42,14.41,15.74s-5.39,15.74-14.53,15.74c-3.69,0-7.08-1.64-8.84-4.3Zm15.98-11.44c0-5.63-3.27-9.32-8.23-9.32s-8.23,3.69-8.23,9.32,3.27,9.32,8.23,9.32,8.23-3.69,8.23-9.32Z"/>
    </g>
    <polygon class="cls-2" points="256.44 167.65 198.14 167.65 198.14 158.97 247.77 158.97 247.77 8.68 8.68 8.68 8.68 115.04 0 115.04 0 0 256.44 0 256.44 167.65"/>
    <rect class="cls-3" x=".01" y="51.7" width="8.68" height="63.34"/>
    <g class="cls-4">
      <path class="cls-2" d="M204.99,24.21h2.69v11.82h6.61v2.33h-9.29v-14.14Z"/>
      <path class="cls-2" d="M225.06,34.96c-.38,2.16-2.28,3.56-4.78,3.56-3.33,0-5.19-2.62-5.19-5.29s1.66-5.21,4.99-5.21,4.95,2.48,4.95,4.91c0,.34-.02,.65-.04,.85h-7.52c.18,1.64,1.23,2.69,2.81,2.69,1.27,0,2.1-.52,2.36-1.49h2.42Zm-7.53-2.83h5.01c-.1-1.29-.99-2.26-2.47-2.26-1.39,0-2.28,.73-2.54,2.26Z"/>
      <path class="cls-2" d="M230.29,25.1v3.07h2.83v2.08h-2.83v4.44c0,1.03,.54,1.56,1.47,1.56h1.35v2.1h-1.64c-2.22,0-3.67-1.29-3.67-3.56v-4.54h-2v-2.08h2v-3.07h2.48Z"/>
      <path class="cls-2" d="M136.63,56.02l-1.98,2.14v4.4h-2.69v-14.14h2.69v6.16l5.68-6.16h3.33l-5.19,5.62,5.71,8.53h-3.31l-4.24-6.55Z"/>
      <path class="cls-2" d="M144.72,52.39h2.48v1.58c.57-1.11,1.72-1.74,3.17-1.74,2.3,0,3.8,1.66,3.8,4.04v6.3h-2.48v-5.78c0-1.4-.85-2.36-2.12-2.36-1.4,0-2.36,1.09-2.36,2.59v5.56h-2.48v-10.18Z"/>
      <path class="cls-2" d="M155.84,57.48c0-3.03,2.22-5.25,5.34-5.25s5.31,2.22,5.31,5.25-2.22,5.25-5.31,5.25-5.34-2.22-5.34-5.25Zm8.14,0c0-1.84-1.13-3.11-2.81-3.11s-2.83,1.27-2.83,3.11,1.13,3.11,2.83,3.11,2.81-1.27,2.81-3.11Z"/>
      <path class="cls-2" d="M166.92,52.39h2.48l1.86,6.81,2-6.81h2.28l2,6.81,1.88-6.81h2.46l-3.23,10.18h-2.2l-2.04-6.85-2.06,6.85h-2.18l-3.25-10.18Z"/>
      <path class="cls-2" d="M183.38,48.03h2.46v14.54h-2.46v-14.54Z"/>
      <path class="cls-2" d="M197.64,59.18c-.38,2.16-2.28,3.56-4.78,3.56-3.33,0-5.19-2.62-5.19-5.29s1.66-5.21,4.99-5.21,4.95,2.48,4.95,4.91c0,.34-.02,.65-.04,.85h-7.52c.18,1.64,1.23,2.69,2.81,2.69,1.27,0,2.1-.52,2.36-1.49h2.42Zm-7.53-2.83h5.01c-.1-1.29-.99-2.26-2.47-2.26-1.39,0-2.28,.73-2.54,2.26Z"/>
      <path class="cls-2" d="M198.76,57.48c0-3.11,1.8-5.25,4.81-5.25,1.33,0,2.4,.56,2.99,1.39v-5.59h2.46v14.54h-2.46v-1.27c-.59,.89-1.72,1.43-2.95,1.43-3.05,0-4.85-2.14-4.85-5.25Zm7.96,0c0-1.88-1.09-3.11-2.75-3.11s-2.75,1.23-2.75,3.11,1.09,3.11,2.75,3.11,2.75-1.23,2.75-3.11Z"/>
      <path class="cls-2" d="M221.23,52.39v10.74c0,2.12-1.54,3.56-3.82,3.56h-5.03v-1.98h4.69c.99,0,1.7-.75,1.7-1.82v-1.45c-.5,.79-1.68,1.29-2.95,1.29-3.07,0-4.85-2.14-4.85-5.25s1.78-5.25,4.81-5.25c1.27,0,2.38,.52,2.97,1.31v-1.15h2.49Zm-2.3,5.09c0-1.88-1.09-3.11-2.77-3.11s-2.72,1.23-2.72,3.11,1.07,3.11,2.72,3.11,2.77-1.23,2.77-3.11Z"/>
      <path class="cls-2" d="M233.01,59.18c-.38,2.16-2.28,3.56-4.78,3.56-3.33,0-5.19-2.62-5.19-5.29s1.66-5.21,4.99-5.21,4.95,2.48,4.95,4.91c0,.34-.02,.65-.04,.85h-7.52c.18,1.64,1.23,2.69,2.81,2.69,1.27,0,2.1-.52,2.36-1.49h2.42Zm-7.53-2.83h5.01c-.1-1.29-.99-2.26-2.47-2.26-1.39,0-2.28,.73-2.54,2.26Z"/>
      <path class="cls-2" d="M209.44,86.78h-2.64l-.34-3.48c-.1-1.07-.85-1.84-1.9-1.84h-3.05v5.31h-2.69v-14.14h5.8c2.95,0,4.69,1.8,4.69,4.36,0,1.45-.73,2.44-1.9,3.05,.97,.61,1.59,1.66,1.69,2.95l.34,3.78Zm-7.94-7.61h2.99c1.57,0,2.22-1.03,2.22-2.16s-.65-2.12-2.22-2.12h-2.99v4.28Z"/>
      <path class="cls-2" d="M220.8,86.78h-2.48v-1.58c-.56,1.11-1.72,1.74-3.17,1.74-2.28,0-3.78-1.66-3.78-4.04v-6.3h2.46v5.78c0,1.39,.87,2.36,2.12,2.36,1.4,0,2.36-1.09,2.36-2.59v-5.55h2.48v10.18Z"/>
      <path class="cls-2" d="M223.01,76.6h2.48v1.58c.57-1.11,1.72-1.74,3.17-1.74,2.3,0,3.8,1.66,3.8,4.04v6.3h-2.48v-5.78c0-1.4-.85-2.36-2.12-2.36-1.4,0-2.36,1.09-2.36,2.59v5.56h-2.48v-10.18Z"/>
    </g>
    <polygon class="cls-2" points="36.49 32.47 21.99 24.1 21.99 40.84 36.49 32.47"/>
    <rect class="cls-1" x="49.05" y="28.13" width="142.48" height="8.68"/>
    <rect class="cls-1" x="21.99" y="51.7" width="98.3" height="8.68"/>
    <rect class="cls-1" x="21.99" y="76.61" width="159.31" height="8.68"/>
  </g>
</svg>