<?xml version="1.0" encoding="UTF-8"?>
<svg xmlns="http://www.w3.org/2000/svg" xmlns:xlink="http://www.w3.org/1999/xlink" width="297pt" height="205pt" viewBox="0 0 297 205" version="1.1">
<defs>
<clipPath id="clip1">
  <path d="M 150.132812 76.417969 L 194.257812 76.417969 L 194.257812 103.789062 L 150.132812 103.789062 Z M 150.132812 76.417969 "/>
</clipPath>
<filter id="alpha" filterUnits="objectBoundingBox" x="0%" y="0%" width="100%" height="100%">
  <feColorMatrix type="matrix" in="SourceGraphic" values="0 0 0 0 1 0 0 0 0 1 0 0 0 0 1 0 0 0 1 0"/>
</filter>
<mask id="mask0">
  <g filter="url(#alpha)">
<rect x="0" y="0" width="297" height="205" style="fill:rgb(0%,0%,0%);fill-opacity:0.25;stroke:none;"/>
  </g>
</mask>
<clipPath id="clip3">
  <path d="M 31 0.417969 L 37 0.417969 L 37 7 L 31 7 Z M 31 0.417969 "/>
</clipPath>
<clipPath id="clip4">
  <path d="M 41 0.417969 L 44.257812 0.417969 L 44.257812 7 L 41 7 Z M 41 0.417969 "/>
</clipPath>
<clipPath id="clip5">
  <path d="M 0.132812 10 L 6 10 L 6 18 L 0.132812 18 Z M 0.132812 10 "/>
</clipPath>
<clipPath id="clip6">
  <path d="M 39 12 L 44.257812 12 L 44.257812 18 L 39 18 Z M 39 12 "/>
</clipPath>
<clipPath id="clip7">
  <path d="M 29 21 L 34 21 L 34 27.789062 L 29 27.789062 Z M 29 21 "/>
</clipPath>
<clipPath id="clip8">
  <path d="M 34 23 L 39 23 L 39 27.789062 L 34 27.789062 Z M 34 23 "/>
</clipPath>
<clipPath id="clip9">
  <path d="M 39 23 L 44 23 L 44 27.789062 L 39 27.789062 Z M 39 23 "/>
</clipPath>
<clipPath id="clip2">
  <rect x="0" y="0" width="45" height="28"/>
</clipPath>
<g id="surface5" clip-path="url(#clip2)">
<g clip-path="url(#clip3)" clip-rule="nonzero">
<path style=" stroke:none;fill-rule:nonzero;fill:rgb(0%,0.392151%,0%);fill-opacity:1;" d="M 31.992188 0.421875 L 33.164062 0.421875 L 33.164062 5.574219 L 36.046875 5.574219 L 36.046875 6.589844 L 31.992188 6.589844 "/>
</g>
<path style=" stroke:none;fill-rule:nonzero;fill:rgb(0%,0.392151%,0%);fill-opacity:1;" d="M 37.460938 3.875 L 39.648438 3.875 C 39.601562 3.308594 39.214844 2.886719 38.570312 2.886719 C 37.964844 2.886719 37.574219 3.203125 37.460938 3.875 M 40.746094 5.109375 C 40.582031 6.050781 39.753906 6.660156 38.660156 6.660156 C 37.207031 6.660156 36.394531 5.515625 36.394531 4.351562 C 36.394531 3.179688 37.117188 2.078125 38.570312 2.078125 C 40.058594 2.078125 40.730469 3.160156 40.730469 4.21875 C 40.730469 4.367188 40.722656 4.5 40.714844 4.589844 L 37.433594 4.589844 C 37.515625 5.304688 37.972656 5.761719 38.660156 5.761719 C 39.214844 5.761719 39.578125 5.53125 39.691406 5.109375 "/>
<g clip-path="url(#clip4)" clip-rule="nonzero">
<path style=" stroke:none;fill-rule:nonzero;fill:rgb(0%,0.392151%,0%);fill-opacity:1;" d="M 43.027344 0.808594 L 43.027344 2.148438 L 44.257812 2.148438 L 44.257812 3.054688 L 43.027344 3.054688 L 43.027344 4.992188 C 43.027344 5.445312 43.261719 5.671875 43.667969 5.671875 L 44.257812 5.671875 L 44.257812 6.589844 L 43.546875 6.589844 C 42.578125 6.589844 41.941406 6.023438 41.941406 5.039062 L 41.941406 3.054688 L 41.070312 3.054688 L 41.070312 2.148438 L 41.941406 2.148438 L 41.941406 0.808594 "/>
</g>
<g clip-path="url(#clip5)" clip-rule="nonzero">
<path style=" stroke:none;fill-rule:nonzero;fill:rgb(0%,0.392151%,0%);fill-opacity:1;" d="M 2.167969 14.296875 L 1.304688 15.230469 L 1.304688 17.152344 L 0.132812 17.152344 L 0.132812 10.984375 L 1.304688 10.984375 L 1.304688 13.671875 L 3.78125 10.984375 L 5.234375 10.984375 L 2.972656 13.433594 L 5.464844 17.152344 L 4.019531 17.152344 "/>
</g>
<path style=" stroke:none;fill-rule:nonzero;fill:rgb(0%,0.392151%,0%);fill-opacity:1;" d="M 5.695312 12.710938 L 6.78125 12.710938 L 6.78125 13.398438 C 7.027344 12.914062 7.53125 12.640625 8.164062 12.640625 C 9.167969 12.640625 9.820312 13.363281 9.820312 14.402344 L 9.820312 17.152344 L 8.738281 17.152344 L 8.738281 14.632812 C 8.738281 14.023438 8.367188 13.601562 7.8125 13.601562 C 7.203125 13.601562 6.78125 14.078125 6.78125 14.730469 L 6.78125 17.152344 L 5.695312 17.152344 "/>
<path style=" stroke:none;fill-rule:nonzero;fill:rgb(0%,0.392151%,0%);fill-opacity:1;" d="M 14.101562 14.929688 C 14.101562 14.128906 13.605469 13.574219 12.875 13.574219 C 12.136719 13.574219 11.640625 14.128906 11.640625 14.929688 C 11.640625 15.734375 12.136719 16.289062 12.875 16.289062 C 13.605469 16.289062 14.101562 15.734375 14.101562 14.929688 M 10.546875 14.929688 C 10.546875 13.609375 11.515625 12.640625 12.875 12.640625 C 14.222656 12.640625 15.191406 13.609375 15.191406 14.929688 C 15.191406 16.253906 14.222656 17.222656 12.875 17.222656 C 11.515625 17.222656 10.546875 16.253906 10.546875 14.929688 "/>
<path style=" stroke:none;fill-rule:nonzero;fill:rgb(0%,0.392151%,0%);fill-opacity:1;" d="M 15.382812 12.710938 L 16.464844 12.710938 L 17.273438 15.679688 L 18.148438 12.710938 L 19.144531 12.710938 L 20.015625 15.679688 L 20.835938 12.710938 L 21.910156 12.710938 L 20.5 17.152344 L 19.539062 17.152344 L 18.648438 14.164062 L 17.75 17.152344 L 16.800781 17.152344 "/>
<path style=" stroke:none;fill-rule:nonzero;fill:rgb(0%,0.392151%,0%);fill-opacity:1;" d="M 22.566406 17.152344 L 23.640625 17.152344 L 23.640625 10.808594 L 22.566406 10.808594 Z M 22.566406 17.152344 "/>
<path style=" stroke:none;fill-rule:nonzero;fill:rgb(0%,0.392151%,0%);fill-opacity:1;" d="M 25.496094 14.4375 L 27.683594 14.4375 C 27.640625 13.875 27.25 13.449219 26.605469 13.449219 C 26 13.449219 25.609375 13.769531 25.496094 14.4375 M 28.785156 15.671875 C 28.617188 16.613281 27.789062 17.222656 26.695312 17.222656 C 25.242188 17.222656 24.429688 16.078125 24.429688 14.914062 C 24.429688 13.742188 25.152344 12.640625 26.605469 12.640625 C 28.097656 12.640625 28.765625 13.722656 28.765625 14.78125 C 28.765625 14.929688 28.757812 15.0625 28.75 15.152344 L 25.46875 15.152344 C 25.550781 15.867188 26.007812 16.324219 26.695312 16.324219 C 27.25 16.324219 27.613281 16.097656 27.726562 15.671875 "/>
<path style=" stroke:none;fill-rule:nonzero;fill:rgb(0%,0.392151%,0%);fill-opacity:1;" d="M 32.746094 14.929688 C 32.746094 14.113281 32.269531 13.574219 31.546875 13.574219 C 30.824219 13.574219 30.347656 14.113281 30.347656 14.929688 C 30.347656 15.753906 30.824219 16.289062 31.546875 16.289062 C 32.269531 16.289062 32.746094 15.753906 32.746094 14.929688 M 29.273438 14.929688 C 29.273438 13.574219 30.058594 12.640625 31.371094 12.640625 C 31.953125 12.640625 32.417969 12.886719 32.675781 13.246094 L 32.675781 10.808594 L 33.75 10.808594 L 33.75 17.152344 L 32.675781 17.152344 L 32.675781 16.597656 C 32.417969 16.984375 31.925781 17.222656 31.386719 17.222656 C 30.058594 17.222656 29.273438 16.289062 29.273438 14.929688 "/>
<path style=" stroke:none;fill-rule:nonzero;fill:rgb(0%,0.392151%,0%);fill-opacity:1;" d="M 38.070312 14.929688 C 38.070312 14.113281 37.59375 13.574219 36.863281 13.574219 C 36.140625 13.574219 35.675781 14.113281 35.675781 14.929688 C 35.675781 15.753906 36.140625 16.289062 36.863281 16.289062 C 37.59375 16.289062 38.070312 15.753906 38.070312 14.929688 M 39.074219 12.710938 L 39.074219 17.398438 C 39.074219 18.324219 38.40625 18.949219 37.410156 18.949219 L 35.214844 18.949219 L 35.214844 18.085938 L 37.257812 18.085938 C 37.691406 18.085938 38 17.757812 38 17.296875 L 38 16.660156 C 37.78125 17.003906 37.269531 17.222656 36.714844 17.222656 C 35.371094 17.222656 34.597656 16.289062 34.597656 14.929688 C 34.597656 13.574219 35.371094 12.640625 36.695312 12.640625 C 37.25 12.640625 37.734375 12.871094 37.988281 13.214844 L 37.988281 12.710938 "/>
<g clip-path="url(#clip6)" clip-rule="nonzero">
<path style=" stroke:none;fill-rule:nonzero;fill:rgb(0%,0.392151%,0%);fill-opacity:1;" d="M 40.929688 14.4375 L 43.113281 14.4375 C 43.070312 13.875 42.683594 13.449219 42.039062 13.449219 C 41.433594 13.449219 41.042969 13.769531 40.929688 14.4375 M 44.214844 15.671875 C 44.050781 16.613281 43.21875 17.222656 42.128906 17.222656 C 40.675781 17.222656 39.863281 16.078125 39.863281 14.914062 C 39.863281 13.742188 40.585938 12.640625 42.039062 12.640625 C 43.53125 12.640625 44.199219 13.722656 44.199219 14.78125 C 44.199219 14.929688 44.191406 15.0625 44.179688 15.152344 L 40.902344 15.152344 C 40.980469 15.867188 41.441406 16.324219 42.128906 16.324219 C 42.683594 16.324219 43.046875 16.097656 43.15625 15.671875 "/>
</g>
<g clip-path="url(#clip7)" clip-rule="nonzero">
<path style=" stroke:none;fill-rule:nonzero;fill:rgb(0%,0.392151%,0%);fill-opacity:1;" d="M 30.472656 24.394531 L 31.777344 24.394531 C 32.460938 24.394531 32.742188 23.945312 32.742188 23.449219 C 32.742188 22.957031 32.460938 22.527344 31.777344 22.527344 L 30.472656 22.527344 Z M 33.933594 27.71875 L 32.78125 27.71875 L 32.632812 26.199219 C 32.585938 25.734375 32.257812 25.398438 31.800781 25.398438 L 30.472656 25.398438 L 30.472656 27.71875 L 29.296875 27.71875 L 29.296875 21.546875 L 31.828125 21.546875 C 33.113281 21.546875 33.871094 22.332031 33.871094 23.449219 C 33.871094 24.085938 33.554688 24.515625 33.046875 24.78125 C 33.46875 25.046875 33.738281 25.503906 33.785156 26.066406 "/>
</g>
<g clip-path="url(#clip8)" clip-rule="nonzero">
<path style=" stroke:none;fill-rule:nonzero;fill:rgb(0%,0.392151%,0%);fill-opacity:1;" d="M 38.890625 27.71875 L 37.804688 27.71875 L 37.804688 27.027344 C 37.558594 27.515625 37.054688 27.785156 36.421875 27.785156 C 35.425781 27.785156 34.773438 27.066406 34.773438 26.023438 L 34.773438 23.277344 L 35.847656 23.277344 L 35.847656 25.796875 C 35.847656 26.402344 36.230469 26.824219 36.773438 26.824219 C 37.382812 26.824219 37.804688 26.351562 37.804688 25.699219 L 37.804688 23.277344 L 38.890625 23.277344 "/>
</g>
<g clip-path="url(#clip9)" clip-rule="nonzero">
<path style=" stroke:none;fill-rule:nonzero;fill:rgb(0%,0.392151%,0%);fill-opacity:1;" d="M 39.855469 23.277344 L 40.9375 23.277344 L 40.9375 23.964844 C 41.183594 23.480469 41.6875 23.207031 42.320312 23.207031 C 43.324219 23.207031 43.976562 23.929688 43.976562 24.96875 L 43.976562 27.71875 L 42.894531 27.71875 L 42.894531 25.195312 C 42.894531 24.589844 42.523438 24.164062 41.96875 24.164062 C 41.359375 24.164062 40.9375 24.640625 40.9375 25.292969 L 40.9375 27.71875 L 39.855469 27.71875 "/>
</g>
</g>
<clipPath id="clip10">
  <path d="M 113.960938 78.128906 L 176.117188 78.128906 L 176.117188 81.914062 L 113.960938 81.914062 Z M 113.960938 78.128906 "/>
</clipPath>
<mask id="mask1">
  <g filter="url(#alpha)">
<rect x="0" y="0" width="297" height="205" style="fill:rgb(0%,0%,0%);fill-opacity:0.119995;stroke:none;"/>
  </g>
</mask>
<clipPath id="clip12">
  <path d="M 0.960938 0.128906 L 63.117188 0.128906 L 63.117188 3.914062 L 0.960938 3.914062 Z M 0.960938 0.128906 "/>
</clipPath>
<clipPath id="clip11">
  <rect x="0" y="0" width="64" height="4"/>
</clipPath>
<g id="surface8" clip-path="url(#clip11)">
<g clip-path="url(#clip12)" clip-rule="nonzero">
<path style=" stroke:none;fill-rule:nonzero;fill:rgb(0%,0.392151%,0%);fill-opacity:1;" d="M 0.960938 3.914062 L 63.117188 3.914062 L 63.117188 0.128906 L 0.960938 0.128906 Z M 0.960938 3.914062 "/>
</g>
</g>
<clipPath id="clip13">
  <path d="M 102.15625 88.410156 L 145.039062 88.410156 L 145.039062 92.195312 L 102.15625 92.195312 Z M 102.15625 88.410156 "/>
</clipPath>
<mask id="mask2">
  <g filter="url(#alpha)">
<rect x="0" y="0" width="297" height="205" style="fill:rgb(0%,0%,0%);fill-opacity:0.119995;stroke:none;"/>
  </g>
</mask>
<clipPath id="clip15">
  <path d="M 0.15625 0.410156 L 43.039062 0.410156 L 43.039062 4.195312 L 0.15625 4.195312 Z M 0.15625 0.410156 "/>
</clipPath>
<clipPath id="clip14">
  <rect x="0" y="0" width="44" height="5"/>
</clipPath>
<g id="surface11" clip-path="url(#clip14)">
<g clip-path="url(#clip15)" clip-rule="nonzero">
<path style=" stroke:none;fill-rule:nonzero;fill:rgb(0%,0.392151%,0%);fill-opacity:1;" d="M 0.15625 4.195312 L 43.039062 4.195312 L 43.039062 0.410156 L 0.15625 0.410156 Z M 0.15625 4.195312 "/>
</g>
</g>
<clipPath id="clip16">
  <path d="M 102.15625 99.28125 L 171.65625 99.28125 L 171.65625 103.066406 L 102.15625 103.066406 Z M 102.15625 99.28125 "/>
</clipPath>
<mask id="mask3">
  <g filter="url(#alpha)">
<rect x="0" y="0" width="297" height="205" style="fill:rgb(0%,0%,0%);fill-opacity:0.119995;stroke:none;"/>
  </g>
</mask>
<clipPath id="clip18">
  <path d="M 0.15625 0.28125 L 69.65625 0.28125 L 69.65625 4.066406 L 0.15625 4.066406 Z M 0.15625 0.28125 "/>
</clipPath>
<clipPath id="clip17">
  <rect x="0" y="0" width="70" height="5"/>
</clipPath>
<g id="surface14" clip-path="url(#clip17)">
<g clip-path="url(#clip18)" clip-rule="nonzero">
<path style=" stroke:none;fill-rule:nonzero;fill:rgb(0%,0.392151%,0%);fill-opacity:1;" d="M 0.15625 4.066406 L 69.65625 4.066406 L 69.65625 0.28125 L 0.15625 0.28125 Z M 0.15625 4.066406 "/>
</g>
</g>
</defs>
<g id="surface1">
<path style=" stroke:none;fill-rule:nonzero;fill:rgb(0%,0.392151%,0%);fill-opacity:1;" d="M 92.582031 120.445312 L 96.359375 120.445312 L 104.359375 133.492188 L 104.359375 120.445312 L 107.847656 120.445312 L 107.847656 138.929688 L 104.097656 138.929688 L 96.070312 125.914062 L 96.070312 138.929688 L 92.582031 138.929688 "/>
<path style=" stroke:none;fill-rule:nonzero;fill:rgb(0%,0.392151%,0%);fill-opacity:1;" d="M 118.4375 135.894531 C 120.789062 135.894531 121.898438 134.996094 121.898438 133.28125 C 121.898438 131.589844 120.789062 130.640625 118.4375 130.640625 L 114.820312 130.640625 L 114.820312 135.894531 Z M 118.308594 127.679688 C 120.15625 127.679688 121.078125 126.890625 121.078125 125.460938 C 121.078125 124.039062 120.15625 123.246094 118.253906 123.246094 L 114.820312 123.246094 L 114.820312 127.679688 Z M 111.386719 120.445312 L 118.542969 120.445312 C 121.921875 120.445312 124.328125 122.136719 124.328125 125.199219 C 124.328125 126.941406 123.21875 128.261719 122.085938 128.84375 C 123.824219 129.503906 125.253906 130.980469 125.253906 133.464844 C 125.253906 136.898438 122.691406 138.929688 118.808594 138.929688 L 111.386719 138.929688 "/>
<path style=" stroke:none;fill-rule:nonzero;fill:rgb(0%,0.392151%,0%);fill-opacity:1;" d="M 143.160156 120.445312 L 143.160156 138.929688 L 139.675781 138.929688 L 139.675781 130.984375 L 131.433594 130.984375 L 131.433594 138.929688 L 127.945312 138.929688 L 127.945312 120.445312 L 131.433594 120.445312 L 131.433594 127.945312 L 139.675781 127.945312 L 139.675781 120.445312 "/>
<path style=" stroke:none;fill-rule:nonzero;fill:rgb(0%,0.392151%,0%);fill-opacity:1;" d="M 158.738281 138.929688 L 155.492188 138.929688 L 155.492188 136.871094 C 154.753906 138.324219 153.246094 139.144531 151.34375 139.144531 C 148.363281 139.144531 146.40625 136.976562 146.40625 133.859375 L 146.40625 125.621094 L 149.628906 125.621094 L 149.628906 133.171875 C 149.628906 134.996094 150.765625 136.265625 152.402344 136.265625 C 154.226562 136.265625 155.492188 134.839844 155.492188 132.882812 L 155.492188 125.621094 L 158.738281 125.621094 "/>
<path style=" stroke:none;fill-rule:nonzero;fill:rgb(0%,0.392151%,0%);fill-opacity:1;" d="M 172.023438 132.277344 C 172.023438 129.820312 170.601562 128.210938 168.433594 128.210938 C 166.269531 128.210938 164.839844 129.820312 164.839844 132.277344 C 164.839844 134.734375 166.269531 136.34375 168.433594 136.34375 C 170.601562 136.34375 172.023438 134.734375 172.023438 132.277344 M 165.054688 137.269531 L 165.054688 138.929688 L 161.828125 138.929688 L 161.828125 119.917969 L 165.054688 119.917969 L 165.054688 127.234375 C 165.820312 126.148438 167.246094 125.410156 168.960938 125.410156 C 172.898438 125.410156 175.246094 128.210938 175.246094 132.277344 C 175.246094 136.34375 172.898438 139.144531 168.910156 139.144531 C 167.296875 139.144531 165.820312 138.429688 165.054688 137.269531 "/>
<path style=" stroke:none;fill-rule:nonzero;fill:rgb(0%,0.392151%,0%);fill-opacity:1;" d="M 204.4375 138.996094 L 179.003906 138.996094 L 179.003906 135.210938 L 200.652344 135.210938 L 200.652344 69.644531 L 96.347656 69.644531 L 96.347656 116.042969 L 92.5625 116.042969 L 92.5625 65.855469 L 204.4375 65.855469 "/>
<path style=" stroke:none;fill-rule:nonzero;fill:rgb(12.156677%,55.2948%,23.136902%);fill-opacity:1;" d="M 92.566406 116.039062 L 96.351562 116.039062 L 96.351562 88.410156 L 92.566406 88.410156 Z M 92.566406 116.039062 "/>
<g clip-path="url(#clip1)" clip-rule="nonzero">
<use xlink:href="#surface5" transform="matrix(1,0,0,1,150,76)" mask="url(#mask0)"/>
</g>
<path style=" stroke:none;fill-rule:nonzero;fill:rgb(0%,0.392151%,0%);fill-opacity:1;" d="M 108.480469 80.023438 L 102.15625 76.371094 L 102.15625 83.671875 "/>
<g clip-path="url(#clip10)" clip-rule="nonzero">
<use xlink:href="#surface8" transform="matrix(1,0,0,1,113,78)" mask="url(#mask1)"/>
</g>
<g clip-path="url(#clip13)" clip-rule="nonzero">
<use xlink:href="#surface11" transform="matrix(1,0,0,1,102,88)" mask="url(#mask2)"/>
</g>
<g clip-path="url(#clip16)" clip-rule="nonzero">
<use xlink:href="#surface14" transform="matrix(1,0,0,1,102,99)" mask="url(#mask3)"/>
</g>
</g>
</svg>
