<?xml version="1.0" encoding="UTF-8"?>
<svg id="_图层_1" data-name="图层 1" xmlns="http://www.w3.org/2000/svg" viewBox="0 0 297 205">
  <defs>
    <style>
      .cls-1 {
        opacity: .12;
      }

      .cls-1, .cls-2 {
        fill: #040000;
      }

      .cls-3 {
        fill: #1d8d3b;
      }

      .cls-4 {
        opacity: .25;
      }
    </style>
  </defs>
  <g>
    <path class="cls-2" d="M92.58,120.45h3.78l8,13.05v-13.05h3.49v18.49h-3.75l-8.03-13.02v13.02h-3.49v-18.49Z"/>
    <path class="cls-2" d="M111.39,120.45h7.16c3.38,0,5.78,1.69,5.78,4.75,0,1.74-1.11,3.06-2.24,3.64,1.74,.66,3.17,2.14,3.17,4.62,0,3.43-2.56,5.47-6.44,5.47h-7.42v-18.49Zm6.92,7.24c1.85,0,2.77-.79,2.77-2.22s-.93-2.22-2.83-2.22h-3.43v4.44h3.49Zm.13,8.21c2.35,0,3.46-.9,3.46-2.61s-1.11-2.64-3.46-2.64h-3.62v5.26h3.62Z"/>
    <path class="cls-2" d="M143.16,120.45v18.49h-3.49v-7.95h-8.24v7.95h-3.49v-18.49h3.49v7.5h8.24v-7.5h3.49Z"/>
    <path class="cls-2" d="M158.74,138.93h-3.25v-2.06c-.74,1.45-2.25,2.27-4.15,2.27-2.98,0-4.94-2.17-4.94-5.28v-8.24h3.22v7.55c0,1.82,1.13,3.09,2.77,3.09,1.82,0,3.09-1.43,3.09-3.38v-7.26h3.25v13.31Z"/>
    <path class="cls-2" d="M165.05,137.27v1.66h-3.22v-19.01h3.22v7.32c.77-1.08,2.19-1.82,3.91-1.82,3.94,0,6.29,2.8,6.29,6.87s-2.35,6.87-6.34,6.87c-1.61,0-3.09-.71-3.86-1.88Zm6.97-4.99c0-2.46-1.43-4.07-3.59-4.07s-3.59,1.61-3.59,4.07,1.43,4.07,3.59,4.07,3.59-1.61,3.59-4.07Z"/>
  </g>
  <polygon class="cls-2" points="204.44 139 179 139 179 135.21 200.65 135.21 200.65 69.64 96.35 69.64 96.35 116.04 92.56 116.04 92.56 65.86 204.44 65.86 204.44 139"/>
  <rect class="cls-3" x="92.57" y="88.41" width="3.79" height="27.63"/>
  <g class="cls-4">
    <path class="cls-2" d="M181.99,76.42h1.17v5.15h2.88v1.01h-4.05v-6.17Z"/>
    <path class="cls-2" d="M190.75,81.11c-.17,.94-1,1.55-2.09,1.55-1.45,0-2.27-1.15-2.27-2.31s.72-2.27,2.18-2.27,2.16,1.08,2.16,2.14c0,.15,0,.28-.02,.37h-3.28c.08,.72,.54,1.17,1.23,1.17,.55,0,.92-.23,1.03-.65h1.06Zm-3.29-1.23h2.19c-.04-.56-.43-.99-1.08-.99-.61,0-1,.32-1.11,.99Z"/>
    <path class="cls-2" d="M193.03,76.81v1.34h1.23v.91h-1.23v1.94c0,.45,.24,.68,.64,.68h.59v.92h-.71c-.97,0-1.6-.56-1.6-1.55v-1.98h-.87v-.91h.87v-1.34h1.08Z"/>
    <path class="cls-2" d="M152.17,90.3l-.86,.94v1.92h-1.17v-6.17h1.17v2.69l2.48-2.69h1.45l-2.26,2.45,2.49,3.72h-1.44l-1.85-2.86Z"/>
    <path class="cls-2" d="M155.7,88.71h1.08v.69c.25-.48,.75-.76,1.38-.76,1,0,1.66,.72,1.66,1.76v2.75h-1.08v-2.52c0-.61-.37-1.03-.93-1.03-.61,0-1.03,.48-1.03,1.13v2.42h-1.08v-4.44Z"/>
    <path class="cls-2" d="M160.55,90.93c0-1.32,.97-2.29,2.33-2.29s2.32,.97,2.32,2.29-.97,2.29-2.32,2.29-2.33-.97-2.33-2.29Zm3.55,0c0-.8-.49-1.36-1.22-1.36s-1.23,.56-1.23,1.36,.49,1.36,1.23,1.36,1.22-.56,1.22-1.36Z"/>
    <path class="cls-2" d="M165.38,88.71h1.08l.81,2.97,.87-2.97h1l.87,2.97,.82-2.97h1.07l-1.41,4.44h-.96l-.89-2.99-.9,2.99h-.95l-1.42-4.44Z"/>
    <path class="cls-2" d="M172.56,86.81h1.07v6.34h-1.07v-6.34Z"/>
    <path class="cls-2" d="M178.78,91.67c-.17,.94-1,1.55-2.09,1.55-1.45,0-2.27-1.15-2.27-2.31s.72-2.27,2.18-2.27,2.16,1.08,2.16,2.14c0,.15,0,.28-.02,.37h-3.28c.08,.72,.54,1.17,1.23,1.17,.55,0,.92-.23,1.03-.65h1.06Zm-3.29-1.23h2.19c-.04-.56-.43-.99-1.08-.99-.61,0-1,.32-1.11,.99Z"/>
    <path class="cls-2" d="M179.27,90.93c0-1.36,.79-2.29,2.1-2.29,.58,0,1.05,.25,1.31,.61v-2.44h1.07v6.34h-1.07v-.56c-.26,.39-.75,.63-1.29,.63-1.33,0-2.11-.93-2.11-2.29Zm3.47,0c0-.82-.48-1.36-1.2-1.36s-1.2,.54-1.2,1.36,.47,1.36,1.2,1.36,1.2-.54,1.2-1.36Z"/>
    <path class="cls-2" d="M189.07,88.71v4.69c0,.93-.67,1.55-1.67,1.55h-2.19v-.86h2.04c.43,0,.74-.33,.74-.79v-.63c-.22,.34-.73,.56-1.29,.56-1.34,0-2.11-.93-2.11-2.29s.78-2.29,2.1-2.29c.56,0,1.04,.23,1.29,.57v-.5h1.08Zm-1,2.22c0-.82-.48-1.36-1.21-1.36s-1.19,.54-1.19,1.36,.47,1.36,1.19,1.36,1.21-.54,1.21-1.36Z"/>
    <path class="cls-2" d="M194.22,91.67c-.17,.94-1,1.55-2.09,1.55-1.45,0-2.26-1.15-2.26-2.31s.72-2.27,2.18-2.27,2.16,1.08,2.16,2.14c0,.15,0,.28-.02,.37h-3.28c.08,.72,.54,1.17,1.23,1.17,.56,0,.92-.23,1.03-.65h1.06Zm-3.29-1.23h2.19c-.04-.56-.43-.99-1.08-.99-.61,0-1,.32-1.11,.99Z"/>
    <path class="cls-2" d="M183.93,103.72h-1.15l-.15-1.52c-.04-.47-.37-.8-.83-.8h-1.33v2.32h-1.17v-6.17h2.53c1.29,0,2.04,.78,2.04,1.9,0,.63-.32,1.07-.83,1.33,.42,.26,.69,.72,.74,1.29l.15,1.65Zm-3.46-3.32h1.31c.69,0,.97-.45,.97-.94s-.28-.93-.97-.93h-1.31v1.87Z"/>
    <path class="cls-2" d="M188.89,103.72h-1.08v-.69c-.25,.48-.75,.76-1.38,.76-1,0-1.65-.72-1.65-1.76v-2.75h1.07v2.52c0,.61,.38,1.03,.93,1.03,.61,0,1.03-.48,1.03-1.13v-2.42h1.08v4.44Z"/>
    <path class="cls-2" d="M189.85,99.28h1.08v.69c.25-.48,.75-.76,1.38-.76,1,0,1.66,.72,1.66,1.76v2.75h-1.08v-2.52c0-.61-.37-1.03-.93-1.03-.61,0-1.03,.48-1.03,1.13v2.42h-1.08v-4.44Z"/>
  </g>
  <polygon class="cls-2" points="108.48 80.02 102.16 76.37 102.16 83.67 108.48 80.02"/>
  <rect class="cls-1" x="113.96" y="78.13" width="62.16" height="3.79"/>
  <rect class="cls-1" x="102.16" y="88.41" width="42.88" height="3.79"/>
  <rect class="cls-1" x="102.16" y="99.28" width="69.5" height="3.79"/>
</svg>